<svg version="1.1" id="Layer_1" xmlns="http://www.w3.org/2000/svg" xmlns:xlink="http://www.w3.org/1999/xlink" x="0px" y="0px"
	 width="100%" viewBox="0 0 184 142" enable-background="new 0 0 184 142" xml:space="preserve">
<path fill="#FEFEFE" opacity="1.000000" stroke="none" 
	d="
M135.000000,143.000000 
	C90.000008,143.000000 45.500011,143.000000 1.000012,143.000000 
	C1.000008,95.666679 1.000008,48.333355 1.000004,1.000025 
	C62.333313,1.000016 123.666626,1.000016 184.999954,1.000008 
	C184.999969,48.333309 184.999969,95.666618 184.999985,142.999969 
	C168.500000,143.000000 152.000000,143.000000 135.000000,143.000000 
M96.707603,19.758562 
	C95.685226,17.673346 94.662842,15.588131 93.581215,13.382063 
	C84.735184,27.974873 75.956146,42.437187 67.214455,56.922031 
	C66.620392,57.906384 66.284981,59.051620 65.866325,60.136330 
	C59.987423,75.368156 68.585732,93.065414 84.402863,98.299881 
	C99.859299,103.414978 116.967651,94.010017 121.124046,78.054176 
	C123.994743,67.033966 120.230705,57.411880 114.553688,48.275173 
	C108.763596,38.956474 102.867271,29.703783 96.707603,19.758562 
M146.924774,102.257889 
	C141.226822,109.243713 133.468933,113.047867 125.228729,115.906075 
	C94.770844,126.470741 64.442673,125.570671 34.286850,114.535973 
	C32.646942,113.935890 30.983974,113.398819 29.331741,112.832420 
	C29.060772,113.433289 28.789803,114.034157 28.518833,114.635033 
	C34.388672,117.401634 40.072979,120.693069 46.160122,122.844994 
	C74.160950,132.743835 102.700500,132.118195 131.351669,126.248360 
	C143.884171,123.680786 155.852554,119.578354 164.804123,109.735741 
	C173.804184,99.839821 173.491745,88.097511 164.244171,78.450806 
	C154.153442,67.924553 140.870346,65.284271 127.365051,63.101196 
	C124.831306,71.360870 125.560722,72.653534 132.821274,76.103737 
	C136.845169,78.015877 140.929062,80.144295 144.319092,82.974060 
	C150.712311,88.310654 151.403503,94.253151 146.924774,102.257889 
M88.282364,116.966278 
	C100.440140,115.832230 112.373878,113.781837 123.368149,108.086205 
	C128.659332,105.345070 133.241440,101.868919 135.113083,95.814987 
	C137.138931,89.262260 133.909744,83.751045 126.611633,81.943962 
	C122.500488,91.575310 115.615540,98.713165 105.861847,102.937614 
	C95.585785,107.388306 84.729645,108.987892 73.670921,108.636948 
	C64.869026,108.357620 56.019619,107.608078 48.077000,103.022964 
	C41.252464,99.083305 38.957802,92.756798 43.204544,86.176094 
	C45.699112,82.310547 49.580444,78.954086 53.542992,76.513000 
	C59.345383,72.938492 60.060879,72.298790 57.868317,64.859886 
	C47.305771,66.755142 37.213940,69.932617 29.067310,77.253555 
	C25.813646,80.177444 23.036093,83.981049 21.057772,87.897400 
	C17.534437,94.872322 19.313244,101.078003 25.994253,105.113853 
	C30.645254,107.923409 35.746288,110.234001 40.929577,111.869888 
	C56.014492,116.630836 71.572014,117.896072 88.282364,116.966278 
M54.350822,97.135956 
	C60.701988,100.612961 67.636436,100.946983 75.645164,101.750328 
	C72.101860,97.898300 69.195511,95.183823 66.841568,92.053909 
	C64.509247,88.952751 62.733822,85.432762 60.714725,82.097443 
	C51.915375,87.711563 50.359394,91.083107 54.350822,97.135956 
z"/>
<path fill="#2F2B68" opacity="1.000000" stroke="none" 
	d="
M96.862534,20.090378 
	C102.867271,29.703783 108.763596,38.956474 114.553688,48.275173 
	C120.230705,57.411880 123.994743,67.033966 121.124046,78.054176 
	C116.967651,94.010017 99.859299,103.414978 84.402863,98.299881 
	C68.585732,93.065414 59.987423,75.368156 65.866325,60.136330 
	C66.284981,59.051620 66.620392,57.906384 67.214455,56.922031 
	C75.956146,42.437187 84.735184,27.974873 93.581215,13.382063 
	C94.662842,15.588131 95.685226,17.673346 96.862534,20.090378 
M92.695137,49.829792 
	C83.122467,50.923729 80.219376,54.086720 80.108086,63.624592 
	C80.080925,65.951706 80.026756,68.295715 80.254509,70.605377 
	C80.941719,77.574265 83.957512,80.880608 90.944481,81.449059 
	C94.338524,81.725197 97.952621,81.269882 101.245537,80.351379 
	C106.141457,78.985756 109.405556,71.295601 107.356339,66.731682 
	C107.040787,66.028908 105.923431,65.283669 105.151581,65.255661 
	C101.110069,65.109001 97.060394,65.187141 93.013557,65.187141 
	C92.778656,65.761620 92.543747,66.336090 92.308838,66.910568 
	C94.807426,68.484245 97.306015,70.057922 99.849915,71.660133 
	C99.751991,75.397385 97.466187,76.809731 93.988663,76.748077 
	C90.381241,76.684128 87.864693,75.099709 87.512230,71.256950 
	C87.254875,68.451096 87.126732,65.611603 87.234612,62.798363 
	C87.494888,56.010784 90.322563,53.832779 96.897812,55.309742 
	C99.697075,55.938522 102.433342,56.847736 105.198242,57.629509 
	C105.590889,57.188457 105.983536,56.747410 106.376175,56.306358 
	C105.185501,54.710125 104.315132,52.345100 102.733887,51.686306 
	C99.909714,50.509666 96.656593,50.362553 92.695137,49.829792 
M81.073509,41.547806 
	C78.198685,46.013092 75.120438,50.362061 72.487930,54.965908 
	C65.184273,67.738899 69.234566,83.867386 81.520241,90.505020 
	C84.448502,92.087082 87.967255,92.576202 91.214409,93.568024 
	C74.020592,79.260551 71.797089,70.342865 81.072983,50.462681 
	C83.245720,45.806065 85.475273,41.174953 87.566162,36.481968 
	C88.001442,35.504986 87.938835,34.306175 88.105682,33.209591 
	C87.713066,33.084370 87.320442,32.959145 86.927826,32.833920 
	C85.116104,35.541920 83.304382,38.249920 81.073509,41.547806 
z"/>
<path fill="#D0AB37" opacity="1.000000" stroke="none" 
	d="
M147.128876,101.945312 
	C151.403503,94.253151 150.712311,88.310654 144.319092,82.974060 
	C140.929062,80.144295 136.845169,78.015877 132.821274,76.103737 
	C125.560722,72.653534 124.831306,71.360870 127.365051,63.101196 
	C140.870346,65.284271 154.153442,67.924553 164.244171,78.450806 
	C173.491745,88.097511 173.804184,99.839821 164.804123,109.735741 
	C155.852554,119.578354 143.884171,123.680786 131.351669,126.248360 
	C102.700500,132.118195 74.160950,132.743835 46.160122,122.844994 
	C40.072979,120.693069 34.388672,117.401634 28.518833,114.635033 
	C28.789803,114.034157 29.060772,113.433289 29.331741,112.832420 
	C30.983974,113.398819 32.646942,113.935890 34.286850,114.535973 
	C64.442673,125.570671 94.770844,126.470741 125.228729,115.906075 
	C133.468933,113.047867 141.226822,109.243713 147.128876,101.945312 
z"/>
<path fill="#D0AB37" opacity="1.000000" stroke="none" 
	d="
M87.804688,116.984268 
	C71.572014,117.896072 56.014492,116.630836 40.929577,111.869888 
	C35.746288,110.234001 30.645254,107.923409 25.994253,105.113853 
	C19.313244,101.078003 17.534437,94.872322 21.057772,87.897400 
	C23.036093,83.981049 25.813646,80.177444 29.067310,77.253555 
	C37.213940,69.932617 47.305771,66.755142 57.868317,64.859886 
	C60.060879,72.298790 59.345383,72.938492 53.542992,76.513000 
	C49.580444,78.954086 45.699112,82.310547 43.204544,86.176094 
	C38.957802,92.756798 41.252464,99.083305 48.077000,103.022964 
	C56.019619,107.608078 64.869026,108.357620 73.670921,108.636948 
	C84.729645,108.987892 95.585785,107.388306 105.861847,102.937614 
	C115.615540,98.713165 122.500488,91.575310 126.611633,81.943962 
	C133.909744,83.751045 137.138931,89.262260 135.113083,95.814987 
	C133.241440,101.868919 128.659332,105.345070 123.368149,108.086205 
	C112.373878,113.781837 100.440140,115.832230 87.804688,116.984268 
z"/>
<path fill="#D1AC3A" opacity="1.000000" stroke="none" 
	d="
M54.048222,96.894653 
	C50.359394,91.083107 51.915375,87.711563 60.714725,82.097443 
	C62.733822,85.432762 64.509247,88.952751 66.841568,92.053909 
	C69.195511,95.183823 72.101860,97.898300 75.645164,101.750328 
	C67.636436,100.946983 60.701988,100.612961 54.048222,96.894653 
z"/>
<path fill="#F5F4F7" opacity="1.000000" stroke="none" 
	d="
M93.138977,49.807396 
	C96.656593,50.362553 99.909714,50.509666 102.733887,51.686306 
	C104.315132,52.345100 105.185501,54.710125 106.376175,56.306358 
	C105.983536,56.747410 105.590889,57.188457 105.198242,57.629509 
	C102.433342,56.847736 99.697075,55.938522 96.897812,55.309742 
	C90.322563,53.832779 87.494888,56.010784 87.234612,62.798363 
	C87.126732,65.611603 87.254875,68.451096 87.512230,71.256950 
	C87.864693,75.099709 90.381241,76.684128 93.988663,76.748077 
	C97.466187,76.809731 99.751991,75.397385 99.849915,71.660133 
	C97.306015,70.057922 94.807426,68.484245 92.308838,66.910568 
	C92.543747,66.336090 92.778656,65.761620 93.013557,65.187141 
	C97.060394,65.187141 101.110069,65.109001 105.151581,65.255661 
	C105.923431,65.283669 107.040787,66.028908 107.356339,66.731682 
	C109.405556,71.295601 106.141457,78.985756 101.245537,80.351379 
	C97.952621,81.269882 94.338524,81.725197 90.944481,81.449059 
	C83.957512,80.880608 80.941719,77.574265 80.254509,70.605377 
	C80.026756,68.295715 80.080925,65.951706 80.108086,63.624592 
	C80.219376,54.086720 83.122467,50.923729 93.138977,49.807396 
z"/>
<path fill="#F4F3F6" opacity="1.000000" stroke="none" 
	d="
M81.283081,41.252861 
	C83.304382,38.249920 85.116104,35.541920 86.927826,32.833920 
	C87.320442,32.959145 87.713066,33.084370 88.105682,33.209591 
	C87.938835,34.306175 88.001442,35.504986 87.566162,36.481968 
	C85.475273,41.174953 83.245720,45.806065 81.072983,50.462681 
	C71.797089,70.342865 74.020592,79.260551 91.214409,93.568024 
	C87.967255,92.576202 84.448502,92.087082 81.520241,90.505020 
	C69.234566,83.867386 65.184273,67.738899 72.487930,54.965908 
	C75.120438,50.362061 78.198685,46.013092 81.283081,41.252861 
z"/>
</svg>